<!-- icon666.com - MILLIONS vector ICONS FREE --><svg id="Capa_1" enable-background="new 0 0 497 497" viewBox="0 0 497 497" xmlns="http://www.w3.org/2000/svg"><g><path d="m28.053 49.677-12.855 6.758c-2.606 1.37-5.652-.843-5.154-3.745l2.455-14.315c.198-1.152-.184-2.328-1.022-3.144l-10.4-10.138c-2.108-2.055-.945-5.635 1.969-6.059l14.373-2.088c1.157-.168 2.157-.895 2.675-1.943l6.426-13.023c1.303-2.64 5.068-2.64 6.371 0l6.428 13.024c.517 1.048 1.518 1.775 2.674 1.943l7.863 1.143 2.509 1.946c2.913.423 4.077 4.004 1.969 6.059l-8.4 8.138c-.837.816-1.219 1.992-1.021 3.144l1.732 13.473c.498 2.902-2.548 5.115-5.154 3.745l-2.607-.961-7.526-3.956c-1.034-.545-2.271-.545-3.305-.001z" fill="#ffe282"></path><path d="m315.5 316.397c-4.142 0-7.5-3.358-7.5-7.5 0-4.142 3.358-7.5 7.5-7.5 4.142 0 7.5 3.358 7.5 7.5 0 4.142-3.358 7.5-7.5 7.5z" fill="#90d8f9"></path><path d="m413.408 200.31c-4.142 0-7.5-3.358-7.5-7.5 0-4.142 3.358-7.5 7.5-7.5 4.142 0 7.5 3.358 7.5 7.5 0 4.142-3.357 7.5-7.5 7.5z" fill="#90d8f9"></path><path d="m208.5 137.617c-4.142 0-7.5-3.358-7.5-7.5 0-4.142 3.358-7.5 7.5-7.5 4.142 0 7.5 3.358 7.5 7.5 0 4.142-3.358 7.5-7.5 7.5z" fill="#90d8f9"></path><path d="m37.896 467.763c-4.142 0-7.5-3.358-7.5-7.5 0-4.142 3.358-7.5 7.5-7.5 4.142 0 7.5 3.358 7.5 7.5 0 4.142-3.357 7.5-7.5 7.5z" fill="#90d8f9"></path><g fill="#ffe282"><path d="m465.642 489.826-12.855 6.758c-2.606 1.37-5.652-.843-5.154-3.745l2.455-14.315c.198-1.152-.184-2.328-1.022-3.144l-10.4-10.138c-2.108-2.055-.945-5.635 1.969-6.059l14.373-2.089c1.157-.168 2.157-.895 2.674-1.943l6.428-13.024c1.303-2.64 5.068-2.64 6.371 0l6.428 13.024c.517 1.048 1.518 1.775 2.675 1.943l7.863 1.143 2.07 1.888c2.914.423 4.077 4.004 1.969 6.059l-7.961 8.196c-.837.816-1.219 1.992-1.022 3.144l2.731 13.308c.498 2.902-2.548 5.115-5.154 3.745l-3.606-.795-7.526-3.956c-1.035-.544-2.271-.544-3.306 0z"></path><path d="m390.077 49.677-12.855 6.758c-2.606 1.37-5.652-.843-5.154-3.745l2.455-14.315c.198-1.152-.184-2.328-1.022-3.144l-10.4-10.138c-2.108-2.055-.945-5.635 1.969-6.059l14.373-2.088c1.157-.168 2.157-.895 2.675-1.943l6.428-13.024c1.303-2.64 5.068-2.64 6.371 0l6.428 13.024c.517 1.048 1.518 1.775 2.674 1.943l7.863 1.142 3.509.946c2.914.423 4.077 4.004 1.969 6.059l-9.4 10.138c-.837.816-1.219 1.992-1.022 3.144l2.455 11.315c.498 2.902-2.548 5.115-5.154 3.745l-3.33.198-7.526-3.956c-1.035-.544-2.272-.544-3.306 0z"></path><path d="m235.642 267.283-12.855 6.758c-2.606 1.37-5.652-.843-5.154-3.745l2.455-14.315c.198-1.152-.184-2.328-1.022-3.144l-10.4-10.138c-2.108-2.055-.945-5.635 1.969-6.059l14.373-2.088c1.157-.168 2.157-.895 2.674-1.943l6.428-13.024c1.303-2.64 5.068-2.64 6.371 0l6.428 13.024c.518 1.048 1.518 1.775 2.675 1.943l7.863 1.143 3.142 2.325c2.914.423 4.077 4.004 1.969 6.059l-9.032 8.759c-.837.816-1.219 1.992-1.022 3.144l2.455 11.315c.498 2.902-2.548 5.115-5.154 3.745l-3.33.198-7.525-3.956c-1.037-.545-2.273-.545-3.308-.001z"></path><path d="m337.805 187.673-19.985 10.507c-4.051 2.13-8.786-1.31-8.012-5.821l3.817-22.254c.307-1.791-.287-3.619-1.588-4.888l-16.168-15.76c-3.277-3.195-1.469-8.761 3.06-9.419l22.344-3.247c1.799-.261 3.353-1.391 4.158-3.021l9.992-20.247c2.026-4.104 7.878-4.104 9.904 0l9.993 20.247c.804 1.63 2.359 2.76 4.158 3.021l12.224 1.776 6.913 2.858c4.529.658 6.338 6.225 3.061 9.419l-15.962 13.373c-1.302 1.269-1.895 3.097-1.588 4.888l5.102 20.471c.774 4.511-3.961 7.951-8.012 5.821l-6.571-1.573-11.699-6.151c-1.61-.845-3.532-.845-5.141 0z"></path><path d="m307.775 378.455c-104.437.001-199.232-74.793-199.231-179.23.001-84.234 58.423-165.951 134.502-190.471 5.068-1.633 3.22-6.674-2.104-6.669-.69.001-6.428 2.023-7.119 2.029-8.275.075-4.087-3.545-12.151-2.673-125.822 13.606-223.626 121.843-221.642 250.953 2.004 130.437 104.506 236.495 233.495 244.163 4.909.292 9.856-.559 14.838-.556 133.779-9.873 194.88-90.951 242.333-214.603.724-1.887.076-4.037.078-6.047.005-5.324-7.467-6.472-9.1-1.404-6.013 18.658-8.617 9.437-19.765 25.062-34.309 48.089-90.557 79.445-154.134 79.446z"></path></g><g><path d="m495.924 465.243c2.108-2.055.945-5.635-1.969-6.059l-6.509-.946c.825 1.329.769 3.168-.527 4.432l-10.4 10.137c-.837.816-1.219 1.992-1.022 3.144l2.455 14.315c.254 1.48-.417 2.778-1.478 3.515l5.33 2.802c2.606 1.37 5.652-.843 5.154-3.745l-2.455-14.315c-.198-1.152.184-2.328 1.022-3.144z" fill="#fdda78"></path></g><g><path d="m58.334 25.094c2.108-2.055.945-5.636-1.969-6.059l-6.509-.946c.825 1.329.769 3.168-.527 4.432l-10.4 10.138c-.837.816-1.219 1.992-1.022 3.144l2.455 14.315c.254 1.48-.417 2.778-1.478 3.515l5.33 2.802c2.606 1.37 5.652-.843 5.154-3.744l-2.455-14.315c-.198-1.152.184-2.328 1.022-3.144z" fill="#fdda78"></path></g><g><path d="m420.358 25.094c2.108-2.055.945-5.636-1.969-6.059l-6.509-.946c.825 1.329.769 3.168-.527 4.432l-10.4 10.138c-.837.816-1.219 1.992-1.022 3.144l2.455 14.315c.254 1.48-.417 2.778-1.478 3.515l5.33 2.802c2.606 1.37 5.652-.843 5.154-3.744l-2.455-14.315c-.198-1.152.184-2.328 1.022-3.144z" fill="#fdda78"></path></g><g><path d="m384.882 149.457c3.278-3.195 1.469-8.761-3.061-9.419l-10.12-1.471c1.282 2.066 1.196 4.925-.82 6.89l-16.168 15.76c-1.302 1.269-1.895 3.097-1.588 4.888l3.817 22.254c.395 2.302-.648 4.319-2.298 5.465l8.286 4.356c4.051 2.13 8.786-1.31 8.012-5.821l-3.817-22.254c-.307-1.791.287-3.619 1.588-4.888z" fill="#fdda78"></path></g><g fill="#fdda78"><path d="m219.667 9.1c-76.078 24.521-131.121 95.891-131.122 180.125-.001 104.437 84.794 189.231 189.231 189.23 5.05 0 10.053-.203 15.003-.592-97.437-7.655-174.234-89.25-174.233-188.638 0-84.234 55.043-155.604 131.121-180.125 5.068-1.633 3.92-9.105-1.404-9.1-.69 0-1.38.004-2.072.01-8.276.075-16.453.568-24.517 1.44 2.058 2.255 1.654 6.471-2.007 7.65z"></path><path d="m487.9 247.333c-6.013 18.657-14.85 36.045-25.998 51.671-22.263 108.81-115.048 190.831-228.376 197.535 4.91.292 9.854.459 14.837.461 135.278.073 245.218-106.979 248.56-242.216.05-2.021.076-4.037.078-6.047.004-5.324-7.468-6.472-9.101-1.404z"></path></g><g><path d="m265.924 242.701c2.108-2.055.945-5.636-1.969-6.059l-6.509-.946c.825 1.329.769 3.168-.527 4.432l-10.4 10.138c-.837.816-1.219 1.992-1.022 3.144l2.455 14.315c.254 1.48-.417 2.778-1.478 3.515l5.33 2.802c2.606 1.37 5.652-.843 5.154-3.745l-2.455-14.315c-.198-1.152.184-2.328 1.022-3.144z" fill="#fdda78"></path></g></g></svg>