<!-- icon666.com - MILLIONS vector ICONS FREE --><svg version="1.1" id="Capa_1" xmlns="http://www.w3.org/2000/svg" xmlns:xlink="http://www.w3.org/1999/xlink" x="0px" y="0px" viewBox="0 0 512.002 512.002" style="enable-background:new 0 0 512.002 512.002;" xml:space="preserve"><g><circle style="fill:#00DDC2;" cx="74.16" cy="481.941" r="29.382"></circle><circle style="fill:#00DDC2;" cx="482.62" cy="113.661" r="29.382"></circle><circle style="fill:#00DDC2;" cx="26.15" cy="50.421" r="20.283"></circle><circle style="fill:#00DDC2;" cx="282.02" cy="20.913" r="20.283"></circle></g><circle style="fill:#E84661;" cx="465.04" cy="359.831" r="20.283"></circle><circle style="fill:#00DDC2;" cx="353.76" cy="452.561" r="20.283"></circle><circle style="fill:#E84661;" cx="473.56" cy="481.991" r="29.382"></circle><path style="fill:#CE1D4C;" d="M502.942,481.986c0,16.23-13.155,29.386-29.386,29.386c-12.877,0-23.824-8.285-27.776-19.831 c4.788,3.395,10.638,5.386,16.942,5.386c16.23,0,29.386-13.156,29.386-29.386c0-3.343-0.557-6.552-1.589-9.544 C498.041,463.321,502.942,472.081,502.942,481.986z"></path><g><path style="fill:#00BCA1;" d="M512,113.657c0,16.23-13.156,29.386-29.386,29.386c-12.877,0-23.824-8.285-27.776-19.831 c4.788,3.395,10.638,5.386,16.942,5.386c16.23,0,29.386-13.156,29.386-29.386c0-3.343-0.557-6.552-1.589-9.544 C507.099,94.992,512,103.752,512,113.657z"></path><path style="fill:#00BCA1;" d="M103.542,481.936c0,16.23-13.156,29.386-29.386,29.386c-12.877,0-23.824-8.285-27.776-19.831 c4.788,3.395,10.638,5.386,16.942,5.386c16.23,0,29.386-13.156,29.386-29.386c0-3.343-0.557-6.552-1.589-9.544 C98.641,463.271,103.542,472.031,103.542,481.936z"></path></g><circle style="fill:#E84661;" cx="327.2" cy="113.661" r="20.283"></circle><g><path style="fill:#CE1D4C;" d="M347.48,113.669c0,11.195-9.08,20.275-20.285,20.275c-9.678,0-17.768-6.779-19.79-15.838 c3.199,2.105,7.016,3.333,11.133,3.333c11.195,0,20.285-9.08,20.285-20.285c0-1.527-0.165-3.013-0.495-4.437 C343.837,100.338,347.48,106.581,347.48,113.669z"></path><path style="fill:#CE1D4C;" d="M485.322,359.839c0,11.195-9.08,20.275-20.285,20.275c-9.678,0-17.768-6.779-19.79-15.838 c3.199,2.105,7.016,3.333,11.133,3.333c11.195,0,20.285-9.08,20.285-20.285c0-1.527-0.165-3.013-0.495-4.437 C481.679,346.508,485.322,352.751,485.322,359.839z"></path></g><g><path style="fill:#00BCA1;" d="M374.039,452.566c0,11.195-9.08,20.275-20.285,20.275c-9.678,0-17.768-6.779-19.79-15.838 c3.199,2.105,7.016,3.333,11.133,3.333c11.195,0,20.285-9.08,20.285-20.285c0-1.527-0.165-3.013-0.495-4.437 C370.397,439.236,374.039,445.478,374.039,452.566z"></path><path style="fill:#00BCA1;" d="M302.308,20.921c0,11.195-9.08,20.275-20.285,20.275c-9.678,0-17.768-6.779-19.79-15.838 c3.199,2.105,7.016,3.333,11.133,3.333c11.195,0,20.285-9.08,20.285-20.285c0-1.527-0.165-3.013-0.495-4.437 C298.665,7.59,302.308,13.833,302.308,20.921z"></path><path style="fill:#00BCA1;" d="M46.431,50.43c0,11.195-9.08,20.275-20.285,20.275c-9.678,0-17.768-6.779-19.79-15.838 c3.199,2.105,7.016,3.333,11.133,3.333c11.195,0,20.285-9.08,20.285-20.285c0-1.527-0.165-3.013-0.495-4.437 C42.789,37.099,46.431,43.341,46.431,50.43z"></path></g><circle style="fill:#E84661;" cx="20.283" cy="290.061" r="20.283"></circle><path style="fill:#CE1D4C;" d="M40.57,290.06c0,11.195-9.08,20.275-20.285,20.275c-9.678,0-17.768-6.779-19.79-15.838 c3.199,2.105,7.016,3.333,11.133,3.333c11.195,0,20.285-9.08,20.285-20.285c0-1.527-0.165-3.013-0.495-4.437 C36.927,276.729,40.57,282.971,40.57,290.06z"></path><path style="fill:#FFE269;" d="M110.688,58.22l45.429,50.886c1.131,1.267,2.813,1.896,4.497,1.682l67.673-8.575 c4.242-0.538,7.259,4.023,5.105,7.717l-34.357,58.93c-0.855,1.467-0.934,3.261-0.21,4.797l29.068,61.711 c1.822,3.868-1.582,8.147-5.761,7.24l-66.663-14.465c-1.659-0.36-3.39,0.119-4.627,1.282l-49.709,46.715 c-3.116,2.928-8.237,1.012-8.666-3.242l-6.843-67.87c-0.17-1.689-1.161-3.187-2.649-4.004l-59.789-32.84 c-3.748-2.059-3.508-7.521,0.405-9.244l62.434-27.481c1.554-0.684,2.672-2.089,2.99-3.757l12.757-67.011 C102.572,56.49,107.841,55.03,110.688,58.22z"></path><path style="fill:#F7D443;" d="M199.034,168.864c-0.856,1.465-0.929,3.261-0.206,4.788l29.066,61.712 c1.816,3.869-1.579,8.151-5.758,7.243l-23.721-5.149l-23.36-49.589c-0.722-1.537-0.64-3.333,0.217-4.798l34.359-58.926 c2.146-3.694-0.867-8.254-5.108-7.718l-67.676,8.574c-1.682,0.217-3.364-0.413-4.499-1.682L97.319,84.081l4.457-23.391 c0.795-4.199,6.067-5.665,8.915-2.466l45.43,50.878c1.125,1.269,2.806,1.898,4.488,1.682l67.676-8.574 c4.241-0.537,7.264,4.024,5.107,7.718L199.034,168.864z"></path><path style="fill:#FFE269;" d="M164.299,322.823l37.908,23.532c1.443,0.896,3.234,1.024,4.789,0.343l40.875-17.887 c3.917-1.714,8.1,1.808,7.078,5.96l-10.666,43.324c-0.406,1.649,0.025,3.392,1.154,4.661l29.643,33.347 c2.841,3.196,0.784,8.262-3.481,8.573l-44.5,3.244c-1.693,0.123-3.218,1.072-4.076,2.537l-22.555,38.497 c-2.162,3.689-7.615,3.299-9.229-0.661l-16.837-41.319c-0.641-1.572-2.014-2.729-3.673-3.093l-43.583-9.555 c-4.177-0.916-5.49-6.223-2.223-8.982l34.094-28.781c1.298-1.095,1.973-2.759,1.806-4.449l-4.381-44.402 C156.024,323.457,160.666,320.568,164.299,322.823z"></path><path style="fill:#F7D443;" d="M271.601,424.679l-25.331,1.847l-20.378-22.916c-1.135-1.269-1.558-3.013-1.156-4.664l10.669-43.325 c1.021-4.148-3.168-7.677-7.078-5.964l-40.88,17.891c-1.558,0.681-3.343,0.557-4.788-0.34l-23.773-14.765l-2.445-24.732 c-0.413-4.251,4.22-7.14,7.862-4.891l37.908,23.535c1.434,0.898,3.23,1.021,4.788,0.341l40.87-17.881 c3.921-1.723,8.1,1.806,7.078,5.954l-10.669,43.325c-0.402,1.651,0.031,3.395,1.156,4.664l29.644,33.348 C277.926,419.293,275.862,424.36,271.601,424.679z"></path><path style="fill:#FFE269;" d="M411.627,143.225l7.132,58.039c0.207,1.685,1.23,3.161,2.736,3.946l51.854,27.028 c3.792,1.976,3.671,7.443-0.204,9.25l-52.994,24.718c-1.539,0.718-2.626,2.147-2.907,3.821l-9.681,57.668 c-0.708,4.217-5.944,5.792-8.861,2.665l-39.884-42.762c-1.158-1.242-2.853-1.834-4.533-1.584l-57.837,8.613 c-4.229,0.63-7.345-3.863-5.272-7.603l28.344-51.146c0.823-1.485,0.863-3.28,0.106-4.8l-26.064-52.345 c-1.906-3.828,1.405-8.179,5.602-7.364l57.402,11.152c1.667,0.324,3.386-0.193,4.598-1.383l41.729-40.964 C405.943,137.177,411.105,138.981,411.627,143.225z"></path><path style="fill:#F7D443;" d="M473.143,241.483l-52.993,24.722c-1.537,0.722-2.621,2.146-2.91,3.818l-9.678,57.667 c-0.712,4.22-5.943,5.799-8.863,2.672l-18.387-19.718l7.615-45.358c0.279-1.682,1.362-3.106,2.91-3.828l52.994-24.712 c3.869-1.816,3.993-7.274,0.196-9.255l-51.848-27.023c-1.506-0.784-2.528-2.26-2.734-3.952l-4.736-38.497l18.18-17.85 c3.054-2.992,8.213-1.187,8.74,3.054l7.13,58.039c0.206,1.682,1.228,3.157,2.734,3.941l51.858,27.033 C477.136,234.219,477.023,239.677,473.143,241.483z"></path></svg>