<svg width="320" height="84" viewBox="0 0 320 84" fill="none" xmlns="http://www.w3.org/2000/svg">
<rect width="320" height="84" rx="42" fill="#08A69C"/>
<rect width="84" height="84" rx="42" fill="url(#paint0_linear_2_15)"/>
<circle cx="30.5" cy="58.5" r="3.5" fill="white"/>
<path d="M59.01 58.37V62H44.22V40.7H58.74V44.33H48.36V49.46H57.33V52.82H48.36V58.37H59.01ZM60.7076 62.21V58.64C61.1876 58.62 61.6176 58.5 61.9976 58.28C62.3776 58.06 62.7076 57.69 62.9876 57.17C63.2876 56.63 63.5176 55.88 63.6776 54.92C63.8576 53.96 63.9776 52.73 64.0376 51.23L64.2476 46.28H76.0376V62H72.0176V49.79H67.7876L67.7276 51.62C67.6476 53.68 67.4476 55.39 67.1276 56.75C66.8076 58.11 66.3576 59.19 65.7776 59.99C65.2176 60.77 64.5176 61.33 63.6776 61.67C62.8376 62.01 61.8476 62.19 60.7076 62.21ZM86.9794 62.3C85.7194 62.3 84.5794 62.09 83.5594 61.67C82.5394 61.23 81.6694 60.64 80.9494 59.9C80.2294 59.14 79.6694 58.28 79.2694 57.32C78.8894 56.34 78.6994 55.31 78.6994 54.23C78.6994 52.73 79.0294 51.36 79.6894 50.12C80.3694 48.88 81.3294 47.89 82.5694 47.15C83.8294 46.39 85.3094 46.01 87.0094 46.01C88.7294 46.01 90.1994 46.39 91.4194 47.15C92.6394 47.89 93.5694 48.88 94.2094 50.12C94.8694 51.34 95.1994 52.66 95.1994 54.08C95.1994 54.32 95.1894 54.57 95.1694 54.83C95.1494 55.07 95.1294 55.27 95.1094 55.43H82.9594C83.0394 56.23 83.2694 56.93 83.6494 57.53C84.0494 58.13 84.5494 58.59 85.1494 58.91C85.7694 59.21 86.4294 59.36 87.1294 59.36C87.9294 59.36 88.6794 59.17 89.3794 58.79C90.0994 58.39 90.5894 57.87 90.8494 57.23L94.2994 58.19C93.9194 58.99 93.3694 59.7 92.6494 60.32C91.9494 60.94 91.1194 61.43 90.1594 61.79C89.1994 62.13 88.1394 62.3 86.9794 62.3ZM82.8694 52.88H91.0894C91.0094 52.08 90.7794 51.39 90.3994 50.81C90.0394 50.21 89.5594 49.75 88.9594 49.43C88.3594 49.09 87.6894 48.92 86.9494 48.92C86.2294 48.92 85.5694 49.09 84.9694 49.43C84.3894 49.75 83.9094 50.21 83.5294 50.81C83.1694 51.39 82.9494 52.08 82.8694 52.88ZM97.6484 62V46.28H101.668V52.28H108.028V46.28H112.048V62H108.028V55.64H101.668V62H97.6484ZM114.645 57.35C114.645 56.33 114.925 55.44 115.485 54.68C116.065 53.9 116.865 53.3 117.885 52.88C118.905 52.46 120.075 52.25 121.395 52.25C122.055 52.25 122.725 52.3 123.405 52.4C124.085 52.5 124.675 52.66 125.175 52.88V52.04C125.175 51.04 124.875 50.27 124.275 49.73C123.695 49.19 122.825 48.92 121.665 48.92C120.805 48.92 119.985 49.07 119.205 49.37C118.425 49.67 117.605 50.11 116.745 50.69L115.455 48.05C116.495 47.37 117.555 46.86 118.635 46.52C119.735 46.18 120.885 46.01 122.085 46.01C124.325 46.01 126.065 46.57 127.305 47.69C128.565 48.81 129.195 50.41 129.195 52.49V57.5C129.195 57.92 129.265 58.22 129.405 58.4C129.565 58.58 129.815 58.69 130.155 58.73V62C129.795 62.06 129.465 62.11 129.165 62.15C128.885 62.19 128.645 62.21 128.445 62.21C127.645 62.21 127.035 62.03 126.615 61.67C126.215 61.31 125.965 60.87 125.865 60.35L125.775 59.54C125.095 60.42 124.245 61.1 123.225 61.58C122.205 62.06 121.165 62.3 120.105 62.3C119.065 62.3 118.125 62.09 117.285 61.67C116.465 61.23 115.815 60.64 115.335 59.9C114.875 59.14 114.645 58.29 114.645 57.35ZM124.425 58.16C124.645 57.92 124.825 57.68 124.965 57.44C125.105 57.2 125.175 56.98 125.175 56.78V55.19C124.695 54.99 124.175 54.84 123.615 54.74C123.055 54.62 122.525 54.56 122.025 54.56C120.985 54.56 120.125 54.79 119.445 55.25C118.785 55.69 118.455 56.28 118.455 57.02C118.455 57.42 118.565 57.8 118.785 58.16C119.005 58.52 119.325 58.81 119.745 59.03C120.165 59.25 120.665 59.36 121.245 59.36C121.845 59.36 122.435 59.25 123.015 59.03C123.595 58.79 124.065 58.5 124.425 58.16ZM140.608 62V40.7H153.688V44.33H144.718V62H140.608ZM155.191 57.35C155.191 56.33 155.471 55.44 156.031 54.68C156.611 53.9 157.411 53.3 158.431 52.88C159.451 52.46 160.621 52.25 161.941 52.25C162.601 52.25 163.271 52.3 163.951 52.4C164.631 52.5 165.221 52.66 165.721 52.88V52.04C165.721 51.04 165.421 50.27 164.821 49.73C164.241 49.19 163.371 48.92 162.211 48.92C161.351 48.92 160.531 49.07 159.751 49.37C158.971 49.67 158.151 50.11 157.291 50.69L156.001 48.05C157.041 47.37 158.101 46.86 159.181 46.52C160.281 46.18 161.431 46.01 162.631 46.01C164.871 46.01 166.611 46.57 167.851 47.69C169.111 48.81 169.741 50.41 169.741 52.49V57.5C169.741 57.92 169.811 58.22 169.951 58.4C170.111 58.58 170.361 58.69 170.701 58.73V62C170.341 62.06 170.011 62.11 169.711 62.15C169.431 62.19 169.191 62.21 168.991 62.21C168.191 62.21 167.581 62.03 167.161 61.67C166.761 61.31 166.511 60.87 166.411 60.35L166.321 59.54C165.641 60.42 164.791 61.1 163.771 61.58C162.751 62.06 161.711 62.3 160.651 62.3C159.611 62.3 158.671 62.09 157.831 61.67C157.011 61.23 156.361 60.64 155.881 59.9C155.421 59.14 155.191 58.29 155.191 57.35ZM164.971 58.16C165.191 57.92 165.371 57.68 165.511 57.44C165.651 57.2 165.721 56.98 165.721 56.78V55.19C165.241 54.99 164.721 54.84 164.161 54.74C163.601 54.62 163.071 54.56 162.571 54.56C161.531 54.56 160.671 54.79 159.991 55.25C159.331 55.69 159.001 56.28 159.001 57.02C159.001 57.42 159.111 57.8 159.331 58.16C159.551 58.52 159.871 58.81 160.291 59.03C160.711 59.25 161.211 59.36 161.791 59.36C162.391 59.36 162.981 59.25 163.561 59.03C164.141 58.79 164.611 58.5 164.971 58.16ZM173.498 62V46.28H187.598V62H183.578V49.79H177.518V62H173.498ZM190.172 57.35C190.172 56.33 190.452 55.44 191.012 54.68C191.592 53.9 192.392 53.3 193.412 52.88C194.432 52.46 195.602 52.25 196.922 52.25C197.582 52.25 198.252 52.3 198.932 52.4C199.612 52.5 200.202 52.66 200.702 52.88V52.04C200.702 51.04 200.402 50.27 199.802 49.73C199.222 49.19 198.352 48.92 197.192 48.92C196.332 48.92 195.512 49.07 194.732 49.37C193.952 49.67 193.132 50.11 192.272 50.69L190.982 48.05C192.022 47.37 193.082 46.86 194.162 46.52C195.262 46.18 196.412 46.01 197.612 46.01C199.852 46.01 201.592 46.57 202.832 47.69C204.092 48.81 204.722 50.41 204.722 52.49V57.5C204.722 57.92 204.792 58.22 204.932 58.4C205.092 58.58 205.342 58.69 205.682 58.73V62C205.322 62.06 204.992 62.11 204.692 62.15C204.412 62.19 204.172 62.21 203.972 62.21C203.172 62.21 202.562 62.03 202.142 61.67C201.742 61.31 201.492 60.87 201.392 60.35L201.302 59.54C200.622 60.42 199.772 61.1 198.752 61.58C197.732 62.06 196.692 62.3 195.632 62.3C194.592 62.3 193.652 62.09 192.812 61.67C191.992 61.23 191.342 60.64 190.862 59.9C190.402 59.14 190.172 58.29 190.172 57.35ZM199.952 58.16C200.172 57.92 200.352 57.68 200.492 57.44C200.632 57.2 200.702 56.98 200.702 56.78V55.19C200.222 54.99 199.702 54.84 199.142 54.74C198.582 54.62 198.052 54.56 197.552 54.56C196.512 54.56 195.652 54.79 194.972 55.25C194.312 55.69 193.982 56.28 193.982 57.02C193.982 57.42 194.092 57.8 194.312 58.16C194.532 58.52 194.852 58.81 195.272 59.03C195.692 59.25 196.192 59.36 196.772 59.36C197.372 59.36 197.962 59.25 198.542 59.03C199.122 58.79 199.592 58.5 199.952 58.16ZM208.478 62V46.28H212.498V52.28H218.858V46.28H222.878V62H218.858V55.64H212.498V62H208.478ZM233.845 62.3C232.585 62.3 231.445 62.09 230.425 61.67C229.405 61.23 228.535 60.64 227.815 59.9C227.095 59.14 226.535 58.28 226.135 57.32C225.755 56.34 225.565 55.31 225.565 54.23C225.565 52.73 225.895 51.36 226.555 50.12C227.235 48.88 228.195 47.89 229.435 47.15C230.695 46.39 232.175 46.01 233.875 46.01C235.595 46.01 237.065 46.39 238.285 47.15C239.505 47.89 240.435 48.88 241.075 50.12C241.735 51.34 242.065 52.66 242.065 54.08C242.065 54.32 242.055 54.57 242.035 54.83C242.015 55.07 241.995 55.27 241.975 55.43H229.825C229.905 56.23 230.135 56.93 230.515 57.53C230.915 58.13 231.415 58.59 232.015 58.91C232.635 59.21 233.295 59.36 233.995 59.36C234.795 59.36 235.545 59.17 236.245 58.79C236.965 58.39 237.455 57.87 237.715 57.23L241.165 58.19C240.785 58.99 240.235 59.7 239.515 60.32C238.815 60.94 237.985 61.43 237.025 61.79C236.065 62.13 235.005 62.3 233.845 62.3ZM229.735 52.88H237.955C237.875 52.08 237.645 51.39 237.265 50.81C236.905 50.21 236.425 49.75 235.825 49.43C235.225 49.09 234.555 48.92 233.815 48.92C233.095 48.92 232.435 49.09 231.835 49.43C231.255 49.75 230.775 50.21 230.395 50.81C230.035 51.39 229.815 52.08 229.735 52.88ZM229.255 43.85V40.28H232.585V43.85H229.255ZM235.015 43.85V40.28H238.345V43.85H235.015ZM244.514 62V46.28H248.534V52.28H254.894V46.28H258.914V62H254.894V55.64H248.534V62H244.514ZM269.85 62.3C268.57 62.3 267.42 62.09 266.4 61.67C265.38 61.23 264.51 60.63 263.79 59.87C263.09 59.11 262.55 58.24 262.17 57.26C261.79 56.28 261.6 55.25 261.6 54.17C261.6 53.07 261.79 52.03 262.17 51.05C262.55 50.07 263.09 49.2 263.79 48.44C264.51 47.68 265.38 47.09 266.4 46.67C267.42 46.23 268.57 46.01 269.85 46.01C271.13 46.01 272.27 46.23 273.27 46.67C274.29 47.09 275.16 47.68 275.88 48.44C276.6 49.2 277.14 50.07 277.5 51.05C277.88 52.03 278.07 53.07 278.07 54.17C278.07 55.25 277.88 56.28 277.5 57.26C277.14 58.24 276.6 59.11 275.88 59.87C275.18 60.63 274.32 61.23 273.3 61.67C272.28 62.09 271.13 62.3 269.85 62.3ZM265.74 54.17C265.74 55.09 265.92 55.91 266.28 56.63C266.64 57.33 267.13 57.88 267.75 58.28C268.37 58.68 269.07 58.88 269.85 58.88C270.61 58.88 271.3 58.68 271.92 58.28C272.54 57.86 273.03 57.3 273.39 56.6C273.77 55.88 273.96 55.06 273.96 54.14C273.96 53.24 273.77 52.43 273.39 51.71C273.03 50.99 272.54 50.43 271.92 50.03C271.3 49.63 270.61 49.43 269.85 49.43C269.07 49.43 268.37 49.64 267.75 50.06C267.13 50.46 266.64 51.02 266.28 51.74C265.92 52.44 265.74 53.25 265.74 54.17ZM280.783 62V46.28H284.803V52.22H286.153L290.413 46.28H294.793L289.213 53.87L295.393 62H290.803L286.093 55.76H284.803V62H280.783Z" fill="white"/>
<path d="M93.272 17.64H95.512L99.688 29H97.416L96.36 26.168H92.392L91.352 29H89.08L93.272 17.64ZM95.96 24.616L94.392 19.928L92.76 24.616H95.96ZM104.38 29.16C103.697 29.16 103.084 29.048 102.54 28.824C101.996 28.5893 101.532 28.2693 101.148 27.864C100.764 27.448 100.465 26.9787 100.252 26.456C100.049 25.9333 99.948 25.384 99.948 24.808C99.948 24.0187 100.124 23.2987 100.476 22.648C100.839 21.9867 101.351 21.4587 102.012 21.064C102.673 20.6693 103.457 20.472 104.364 20.472C105.271 20.472 106.049 20.6693 106.7 21.064C107.351 21.4587 107.836 21.976 108.156 22.616L106.06 23.256C105.879 22.9467 105.639 22.712 105.34 22.552C105.041 22.3813 104.711 22.296 104.348 22.296C103.943 22.296 103.569 22.4027 103.228 22.616C102.897 22.8187 102.636 23.112 102.444 23.496C102.252 23.8693 102.156 24.3067 102.156 24.808C102.156 25.2987 102.252 25.736 102.444 26.12C102.647 26.4933 102.913 26.792 103.244 27.016C103.575 27.2293 103.943 27.336 104.348 27.336C104.604 27.336 104.844 27.2933 105.068 27.208C105.303 27.1227 105.511 27.0053 105.692 26.856C105.873 26.7067 106.007 26.536 106.092 26.344L108.188 26.984C107.996 27.4 107.713 27.7733 107.34 28.104C106.977 28.4347 106.545 28.696 106.044 28.888C105.553 29.0693 104.999 29.16 104.38 29.16ZM111.443 29V22.488H108.787V20.616H116.259V22.488H113.587V29H111.443ZM122.484 29.16C121.834 29.16 121.258 29.016 120.756 28.728C120.266 28.4293 119.882 28.0293 119.604 27.528V32.408H117.46V20.616H119.332V22.056C119.652 21.5653 120.058 21.1813 120.548 20.904C121.039 20.616 121.599 20.472 122.228 20.472C122.794 20.472 123.311 20.584 123.78 20.808C124.26 21.032 124.676 21.3467 125.028 21.752C125.38 22.1467 125.652 22.6053 125.844 23.128C126.047 23.64 126.148 24.1947 126.148 24.792C126.148 25.6027 125.988 26.3387 125.668 27C125.359 27.6613 124.927 28.1893 124.372 28.584C123.828 28.968 123.199 29.16 122.484 29.16ZM121.764 27.336C122.095 27.336 122.394 27.2667 122.66 27.128C122.927 26.9893 123.156 26.8027 123.348 26.568C123.551 26.3227 123.7 26.0507 123.796 25.752C123.903 25.4427 123.956 25.1227 123.956 24.792C123.956 24.44 123.898 24.1147 123.78 23.816C123.674 23.5173 123.514 23.256 123.3 23.032C123.087 22.7973 122.836 22.616 122.548 22.488C122.271 22.36 121.967 22.296 121.636 22.296C121.434 22.296 121.226 22.3333 121.012 22.408C120.81 22.472 120.612 22.568 120.42 22.696C120.228 22.824 120.058 22.9733 119.908 23.144C119.77 23.3147 119.668 23.5013 119.604 23.704V25.672C119.732 25.9813 119.903 26.264 120.116 26.52C120.34 26.776 120.596 26.9787 120.884 27.128C121.172 27.2667 121.466 27.336 121.764 27.336ZM131.473 29.16C130.79 29.16 130.177 29.048 129.633 28.824C129.089 28.5893 128.625 28.2693 128.241 27.864C127.868 27.4587 127.58 26.9947 127.377 26.472C127.174 25.9493 127.073 25.4 127.073 24.824C127.073 24.2373 127.174 23.6827 127.377 23.16C127.58 22.6373 127.868 22.1733 128.241 21.768C128.625 21.3627 129.089 21.048 129.633 20.824C130.177 20.5893 130.79 20.472 131.473 20.472C132.156 20.472 132.764 20.5893 133.297 20.824C133.841 21.048 134.305 21.3627 134.689 21.768C135.073 22.1733 135.361 22.6373 135.553 23.16C135.756 23.6827 135.857 24.2373 135.857 24.824C135.857 25.4 135.756 25.9493 135.553 26.472C135.361 26.9947 135.073 27.4587 134.689 27.864C134.316 28.2693 133.857 28.5893 133.313 28.824C132.769 29.048 132.156 29.16 131.473 29.16ZM129.281 24.824C129.281 25.3147 129.377 25.752 129.569 26.136C129.761 26.5093 130.022 26.8027 130.353 27.016C130.684 27.2293 131.057 27.336 131.473 27.336C131.878 27.336 132.246 27.2293 132.577 27.016C132.908 26.792 133.169 26.4933 133.361 26.12C133.564 25.736 133.665 25.2987 133.665 24.808C133.665 24.328 133.564 23.896 133.361 23.512C133.169 23.128 132.908 22.8293 132.577 22.616C132.246 22.4027 131.878 22.296 131.473 22.296C131.057 22.296 130.684 22.408 130.353 22.632C130.022 22.8453 129.761 23.144 129.569 23.528C129.377 23.9013 129.281 24.3333 129.281 24.824ZM136.696 29.112V27.208C136.952 27.1973 137.181 27.1333 137.384 27.016C137.587 26.8987 137.763 26.7013 137.912 26.424C138.072 26.136 138.195 25.736 138.28 25.224C138.376 24.712 138.44 24.056 138.472 23.256L138.584 20.616H144.872V29H142.728V22.488H140.472L140.44 23.464C140.397 24.5627 140.291 25.4747 140.12 26.2C139.949 26.9253 139.709 27.5013 139.4 27.928C139.101 28.344 138.728 28.6427 138.28 28.824C137.832 29.0053 137.304 29.1013 136.696 29.112ZM150.692 29.16C150.009 29.16 149.396 29.048 148.852 28.824C148.308 28.5893 147.844 28.2693 147.46 27.864C147.086 27.4587 146.798 26.9947 146.596 26.472C146.393 25.9493 146.292 25.4 146.292 24.824C146.292 24.2373 146.393 23.6827 146.596 23.16C146.798 22.6373 147.086 22.1733 147.46 21.768C147.844 21.3627 148.308 21.048 148.852 20.824C149.396 20.5893 150.009 20.472 150.692 20.472C151.374 20.472 151.982 20.5893 152.516 20.824C153.06 21.048 153.524 21.3627 153.908 21.768C154.292 22.1733 154.58 22.6373 154.772 23.16C154.974 23.6827 155.076 24.2373 155.076 24.824C155.076 25.4 154.974 25.9493 154.772 26.472C154.58 26.9947 154.292 27.4587 153.908 27.864C153.534 28.2693 153.076 28.5893 152.532 28.824C151.988 29.048 151.374 29.16 150.692 29.16ZM148.5 24.824C148.5 25.3147 148.596 25.752 148.788 26.136C148.98 26.5093 149.241 26.8027 149.572 27.016C149.902 27.2293 150.276 27.336 150.692 27.336C151.097 27.336 151.465 27.2293 151.796 27.016C152.126 26.792 152.388 26.4933 152.58 26.12C152.782 25.736 152.884 25.2987 152.884 24.808C152.884 24.328 152.782 23.896 152.58 23.512C152.388 23.128 152.126 22.8293 151.796 22.616C151.465 22.4027 151.097 22.296 150.692 22.296C150.276 22.296 149.902 22.408 149.572 22.632C149.241 22.8453 148.98 23.144 148.788 23.528C148.596 23.9013 148.5 24.3333 148.5 24.824ZM156.523 29V20.616H162.075V22.488H158.667V29H156.523ZM167.436 31.08V16.6H169.26V31.08H167.436ZM175.591 29V17.64H184.791V29H182.599V19.576H177.783V29H175.591ZM190.88 29.16C190.197 29.16 189.584 29.048 189.04 28.824C188.496 28.5893 188.032 28.2693 187.648 27.864C187.264 27.448 186.965 26.9787 186.752 26.456C186.549 25.9333 186.448 25.384 186.448 24.808C186.448 24.0187 186.624 23.2987 186.976 22.648C187.339 21.9867 187.851 21.4587 188.512 21.064C189.173 20.6693 189.957 20.472 190.864 20.472C191.771 20.472 192.549 20.6693 193.2 21.064C193.851 21.4587 194.336 21.976 194.656 22.616L192.56 23.256C192.379 22.9467 192.139 22.712 191.84 22.552C191.541 22.3813 191.211 22.296 190.848 22.296C190.443 22.296 190.069 22.4027 189.728 22.616C189.397 22.8187 189.136 23.112 188.944 23.496C188.752 23.8693 188.656 24.3067 188.656 24.808C188.656 25.2987 188.752 25.736 188.944 26.12C189.147 26.4933 189.413 26.792 189.744 27.016C190.075 27.2293 190.443 27.336 190.848 27.336C191.104 27.336 191.344 27.2933 191.568 27.208C191.803 27.1227 192.011 27.0053 192.192 26.856C192.373 26.7067 192.507 26.536 192.592 26.344L194.688 26.984C194.496 27.4 194.213 27.7733 193.84 28.104C193.477 28.4347 193.045 28.696 192.544 28.888C192.053 29.0693 191.499 29.16 190.88 29.16ZM196.007 29V20.632H198.151V26.136L201.911 20.616H203.863V29H201.719V23.624L198.007 29H196.007ZM207.196 20.616L208.956 23.24L209.084 23.528L209.244 23.24L210.988 20.616H213.244L210.332 24.792L213.292 29H211.036L209.228 26.392L209.084 26.12L208.956 26.392L207.164 29H204.908L207.868 24.84L204.956 20.616H207.196ZM218.192 29.16C217.509 29.16 216.896 29.048 216.352 28.824C215.808 28.5893 215.344 28.2693 214.96 27.864C214.586 27.4587 214.298 26.9947 214.096 26.472C213.893 25.9493 213.792 25.4 213.792 24.824C213.792 24.2373 213.893 23.6827 214.096 23.16C214.298 22.6373 214.586 22.1733 214.96 21.768C215.344 21.3627 215.808 21.048 216.352 20.824C216.896 20.5893 217.509 20.472 218.192 20.472C218.874 20.472 219.482 20.5893 220.016 20.824C220.56 21.048 221.024 21.3627 221.408 21.768C221.792 22.1733 222.08 22.6373 222.272 23.16C222.474 23.6827 222.576 24.2373 222.576 24.824C222.576 25.4 222.474 25.9493 222.272 26.472C222.08 26.9947 221.792 27.4587 221.408 27.864C221.034 28.2693 220.576 28.5893 220.032 28.824C219.488 29.048 218.874 29.16 218.192 29.16ZM216 24.824C216 25.3147 216.096 25.752 216.288 26.136C216.48 26.5093 216.741 26.8027 217.072 27.016C217.402 27.2293 217.776 27.336 218.192 27.336C218.597 27.336 218.965 27.2293 219.296 27.016C219.626 26.792 219.888 26.4933 220.08 26.12C220.282 25.736 220.384 25.2987 220.384 24.808C220.384 24.328 220.282 23.896 220.08 23.512C219.888 23.128 219.626 22.8293 219.296 22.616C218.965 22.4027 218.597 22.296 218.192 22.296C217.776 22.296 217.402 22.408 217.072 22.632C216.741 22.8453 216.48 23.144 216.288 23.528C216.096 23.9013 216 24.3333 216 24.824ZM223.415 29.112V27.208C223.671 27.1973 223.9 27.1333 224.103 27.016C224.306 26.8987 224.482 26.7013 224.631 26.424C224.791 26.136 224.914 25.736 224.999 25.224C225.095 24.712 225.159 24.056 225.191 23.256L225.303 20.616H231.591V29H229.447V22.488H227.191L227.159 23.464C227.116 24.5627 227.01 25.4747 226.839 26.2C226.668 26.9253 226.428 27.5013 226.119 27.928C225.82 28.344 225.447 28.6427 224.999 28.824C224.551 29.0053 224.023 29.1013 223.415 29.112ZM237.411 29.16C236.728 29.16 236.115 29.048 235.571 28.824C235.027 28.5893 234.563 28.2693 234.179 27.864C233.805 27.4587 233.517 26.9947 233.315 26.472C233.112 25.9493 233.011 25.4 233.011 24.824C233.011 24.2373 233.112 23.6827 233.315 23.16C233.517 22.6373 233.805 22.1733 234.179 21.768C234.563 21.3627 235.027 21.048 235.571 20.824C236.115 20.5893 236.728 20.472 237.411 20.472C238.093 20.472 238.701 20.5893 239.235 20.824C239.779 21.048 240.243 21.3627 240.627 21.768C241.011 22.1733 241.299 22.6373 241.491 23.16C241.693 23.6827 241.795 24.2373 241.795 24.824C241.795 25.4 241.693 25.9493 241.491 26.472C241.299 26.9947 241.011 27.4587 240.627 27.864C240.253 28.2693 239.795 28.5893 239.251 28.824C238.707 29.048 238.093 29.16 237.411 29.16ZM235.219 24.824C235.219 25.3147 235.315 25.752 235.507 26.136C235.699 26.5093 235.96 26.8027 236.291 27.016C236.621 27.2293 236.995 27.336 237.411 27.336C237.816 27.336 238.184 27.2293 238.515 27.016C238.845 26.792 239.107 26.4933 239.299 26.12C239.501 25.736 239.603 25.2987 239.603 24.808C239.603 24.328 239.501 23.896 239.299 23.512C239.107 23.128 238.845 22.8293 238.515 22.616C238.184 22.4027 237.816 22.296 237.411 22.296C236.995 22.296 236.621 22.408 236.291 22.632C235.96 22.8453 235.699 23.144 235.507 23.528C235.315 23.9013 235.219 24.3333 235.219 24.824ZM243.242 29V20.616H248.794V22.488H245.386V29H243.242Z" fill="white"/>
<defs>
<linearGradient id="paint0_linear_2_15" x1="42" y1="0" x2="42" y2="84" gradientUnits="userSpaceOnUse">
<stop stop-color="#A2DD4F"/>
<stop offset="1" stop-color="#304612" stop-opacity="0.22"/>
</linearGradient>
</defs>
</svg>
